<svg xmlns="http://www.w3.org/2000/svg"  viewBox="0 0 32 32" width="128px" height="128px"><path d="M30.292,14.948c-0.324-0.498-0.749-0.917-1.245-1.236c0.053-1.698-0.096-3.371-0.21-4.122 c-0.278-2.634-2.483-6.229-5.966-6.229h-0.014h-0.005C22.8,3.36,22.747,3.359,22.694,3.359c-0.076,0-0.152,0.002-0.227,0.005 c-1.602-1.711-4.038-2.349-5.864-2.349l-0.059,0C16.348,1.005,16.153,1,15.958,1C12.131,1,8.299,2.997,5.957,6.211 c-1.663,2.282-2.396,4.96-2.114,7.565c-0.735,0.499-1.292,1.214-1.577,2.069l-0.009,0.026l-0.008,0.026 c-0.581,1.917-0.019,3.287,0.432,4.387l0.09,0.221l0.015,0.036l0.016,0.036c0.756,1.672,2.112,2.874,3.658,3.255 C7.826,29.459,12.109,32,16.024,32c3.929,0,8.325-2.508,9.962-8.058c0.141-0.019,0.277-0.045,0.41-0.078 c2.134-0.476,3.7-2.246,4.411-4.99C31.186,17.438,31.004,16.04,30.292,14.948z" opacity=".3"/><path fill="#fff" d="M29.292,13.948c-0.324-0.498-0.749-0.917-1.245-1.236c0.053-1.698-0.096-3.371-0.21-4.122 c-0.278-2.634-2.483-6.229-5.966-6.229h-0.014h-0.005C21.8,2.36,21.747,2.359,21.694,2.359c-0.076,0-0.152,0.002-0.227,0.005 c-1.602-1.711-4.038-2.349-5.864-2.349l-0.059,0C15.348,0.005,15.153,0,14.958,0C11.131,0,7.299,1.997,4.957,5.211 c-1.663,2.282-2.396,4.96-2.114,7.565c-0.735,0.499-1.292,1.214-1.577,2.069l-0.009,0.026l-0.008,0.026 c-0.581,1.917-0.019,3.287,0.432,4.387l0.09,0.221l0.015,0.036l0.016,0.036c0.756,1.672,2.112,2.874,3.658,3.255 C6.826,28.459,11.109,31,15.024,31c3.929,0,8.325-2.508,9.962-8.058c0.141-0.019,0.277-0.045,0.41-0.078 c2.134-0.476,3.7-2.246,4.411-4.99C30.186,16.438,30.004,15.04,29.292,13.948z"/><path d="M15.513,18.958c-0.931,0.775-1.722,1.439-2.043,2.414c-0.02,0.056-0.003,0.043-0.076-0.043 c-0.088-0.092-0.18-0.071-0.078-0.046c0.604,0.117,1.248,0.104,1.863-0.034c0.236-0.052,0.469,0.097,0.521,0.332 c0.047,0.211-0.068,0.42-0.261,0.499c-0.56,0.229-1.163,0.37-1.781,0.41c-0.468,0.003-0.836,0.11-1.292-0.375 c-0.242-0.313-0.257-0.621-0.256-0.839c0.096-1.534,1.189-2.79,2.001-3.742C15.071,16.463,16.6,18.011,15.513,18.958 L15.513,18.958z"/><path d="M14.489,24.261c1.174-0.237,2.254-0.969,2.698-1.843c0.749-1.34,2.653,0.021,1.626,1.165 c-1.163,1.309-2.748,1.8-4.232,1.793c-0.31-0.001-0.56-0.254-0.559-0.564C14.023,24.535,14.226,24.305,14.489,24.261 L14.489,24.261z"/><ellipse cx="11" cy="17.624" rx="1" ry="1.433"/><ellipse cx="19" cy="17.624" rx="1" ry="1.433"/><path d="M25.909,13.869c0.242-1.95,0.03-4.429-0.099-5.216c-0.182-1.916-1.827-4.577-4.184-4.543 c-0.396-0.015-0.82,0.036-1.229,0.176c-1.011-1.787-3.362-2.574-5.268-2.543C8.679,1.372,2.516,7.565,4.43,13.858 c-0.882,0.108-1.715,0.609-2.013,1.49c-0.412,1.338,0.022,2.2,0.475,3.298c0.456,0.992,1.365,1.978,2.531,2.203 c0.305,0.073,0.7,0.09,1.084,0.044c1.471,10.983,14.898,10.686,16.799-0.094c0.504,0.151,1.105,0.157,1.532,0.05 c1.732-0.367,2.633-2.042,3.042-3.595C28.412,15.277,27.288,14.061,25.909,13.869z M7.29,9.671 c1.251-3.145,4.529-5.092,7.878-5.266c1.491-0.116,3.177,0.141,3.801,1.53c0.176,0.393,0.594,0.645,1.044,0.592 c1.713-0.379,2.944,0.768,3.248,2.599c0.272,1.607,0.533,3.444,0.404,5.137c-1.806-1.61-3.181-3.814-3.733-6.26 c-0.071-0.365-0.579-0.495-0.814-0.202c-1.565,1.73-3.888,2.785-5.96,3.813c-2.041,0.936-4.304,1.612-6.512,1.272 C6.657,11.774,6.868,10.679,7.29,9.671z M25.738,16.75c-0.263,1.097-0.793,2.418-2.027,2.086 c-0.509-0.181-1.078,0.077-1.271,0.589c-0.119,0.377-0.055,0.666,0.107,0.891c-0.674,1.808-1.663,3.457-2.975,4.694 c-4.942,4.462-10.451,1.097-11.876-4.668c0.166-0.218,0.241-0.499,0.143-0.87c-0.169-0.525-0.732-0.814-1.258-0.646 c-0.216,0.075-0.469,0.085-0.699,0.022c-0.845-0.208-1.493-1.837-1.366-2.682c0.342-0.158,0.679,0.232,0.859,0.593 c0.298,0.62,1.066,0.864,1.667,0.528c0.978-0.609,0.635-1.61-0.016-2.351c1.168,0.026,2.638-0.36,3.257-0.503 c3.279-1.163,6.434-2.861,8.878-5.345c0.451,2.522,1.676,4.915,3.481,6.843c-0.366,1.286,1.553,2.185,2.245,0.828 c0.175-0.333,0.415-0.643,0.746-0.628C25.795,16.133,25.822,16.262,25.738,16.75z"/></svg>